<svg width="200" height="200" viewBox="0 0 200 200" fill="none" xmlns="http://www.w3.org/2000/svg">
  <g clip-path="url(#clip0_381_983)">
    <path
      d="M200.001 166.668C200.001 185.077 185.076 200.001 166.668 200.001C148.258 200.001 133.335 185.076 133.335 166.668C133.335 148.259 148.258 133.335 166.668 133.335C185.076 133.335 200.001 148.259 200.001 166.668ZM158.335 87.5005C158.335 103.609 145.277 116.667 129.167 116.667C113.058 116.667 100 103.609 100 87.5C100 71.3926 113.058 58.333 129.167 58.333C145.277 58.333 158.335 71.3931 158.335 87.5005ZM100 150C100 177.615 77.6138 200.001 49.999 200.001C22.3867 200.001 0 177.615 0 150C0 122.386 22.3867 100.001 49.999 100.001C77.6138 100.001 100 122.386 100 150L100 150ZM83.3359 41.6685C83.3359 64.6807 64.6802 83.3364 41.668 83.3364C18.6558 83.3364 0 64.6807 0 41.6685C0 18.6562 18.6558 0.000488281 41.668 0.000488281C64.6802 0.000488281 83.3359 18.6562 83.3359 41.6685ZM200.001 25.0005C200.001 38.8076 188.807 49.9995 174.999 49.9995C161.192 49.9995 150 38.8076 150 25C150 11.1929 161.192 0.000488281 175 0.000488281C188.807 0.000488281 200.001 11.1929 200.001 25.0005H200.001ZM191.666 108.332C191.666 112.935 187.935 116.666 183.333 116.666C178.73 116.666 174.999 112.935 174.999 108.332C174.999 103.731 178.73 100.001 183.333 100.001C187.935 100.001 191.666 103.731 191.666 108.332ZM129.167 29.1675C129.167 36.0723 123.572 41.6685 116.667 41.6685C109.764 41.6685 104.168 36.0723 104.168 29.1675C104.168 22.2651 109.764 16.6689 116.667 16.6689C123.571 16.6689 129.167 22.2646 129.167 29.1675Z"
      fill="white" />
  </g>
  <defs>
    <clipPath id="clip0_381_983">
      <rect width="200" height="200" fill="white" transform="translate(0 0.000488281)" />
    </clipPath>
  </defs>
</svg>